<?xml version="1.0" encoding="utf-8" ?>
<svg baseProfile="full" height="1024pt" preserveAspectRatio="xMidYMid meet" version="1.1" viewBox="0 0 1024 1024" width="1024pt" xmlns="http://www.w3.org/2000/svg" xmlns:ev="http://www.w3.org/2001/xml-events" xmlns:xlink="http://www.w3.org/1999/xlink"><defs /><g stroke="none" transform="translate(0.000000,1024.000000) scale(0.100000,-0.100000)"><path d="M4837 8537 c160 -169 233 -362 220 -587 -10 -166 -42 -258 -182 -520 -115 -214 -130 -258 -130 -371 0 -78 3 -90 30 -134 78 -126 248 -126 328 1 10 16 50 85 88 154 201 362 238 482 226 734 -7 143 -30 243 -86 362 -105 223 -291 391 -470 424 -99 18 -100 17 -24 -63z" fill="#064E3B" /><path d="M6195 8403 c53 -124 68 -191 68 -293 1 -127 -13 -192 -64 -290 -51 -100 -120 -182 -232 -276 -254 -215 -351 -336 -406 -503 -23 -70 -28 -181 -10 -228 12 -34 64 -90 101 -109 36 -19 112 -18 154 2 46 22 78 55 145 155 72 107 136 185 260 316 149 157 204 249 255 423 62 211 32 482 -70 635 -45 68 -119 141 -169 166 -37 20 -39 20 -32 2z" fill="#064E3B" /><path d="M3551 8265 c-36 -8 -68 -18 -73 -23 -5 -5 28 -21 76 -36 87 -29 194 -92 254 -149 56 -53 127 -169 153 -248 34 -103 34 -305 0 -459 -28 -133 -38 -289 -22 -370 45 -226 229 -379 360 -299 81 49 97 98 81 251 -10 91 -9 140 5 296 29 311 7 463 -95 647 -100 181 -262 320 -439 375 -86 27 -218 34 -300 15z" fill="#064E3B" /><path d="M3015 7917 c-107 -112 -158 -282 -158 -522 1 -182 25 -289 98 -436 135 -269 317 -432 541 -485 80 -19 226 -22 267 -5 34 13 33 17 -29 150 -73 156 -139 244 -320 426 -207 209 -287 326 -330 482 -21 76 -29 281 -15 357 15 84 2 91 -54 33z" fill="#064E3B" /><path d="M7215 7666 c-1 -162 -30 -259 -116 -386 -92 -138 -180 -203 -443 -329 -102 -49 -206 -104 -232 -122 -78 -54 -161 -145 -196 -217 -28 -56 -33 -77 -33 -137 1 -116 54 -190 159 -220 97 -28 189 8 326 127 47 41 155 126 240 190 167 125 191 147 269 252 172 228 231 538 150 780 -22 65 -81 161 -108 175 -14 8 -16 -3 -16 -113z" fill="#064E3B" /><path d="M2026 6799 c-94 -235 -46 -496 139 -754 186 -260 469 -461 754 -535 216 -57 377 24 374 188 -2 95 -73 181 -200 246 -38 18 -149 61 -248 95 -191 65 -330 127 -416 185 -110 74 -220 199 -281 321 -29 57 -72 189 -83 253 -4 23 -10 42 -15 42 -4 0 -15 -19 -24 -41z" fill="#064E3B" /><path d="M2725 6696 c-31 -31 -32 -64 -1 -138 90 -219 335 -398 544 -398 79 0 109 20 98 63 -7 28 -14 32 -112 57 -171 44 -299 148 -388 317 -52 98 -58 107 -93 117 -17 5 -29 1 -48 -18z" fill="#064E3B" /><path d="M7320 5345 c-190 -38 -410 -184 -439 -292 -15 -53 1 -104 44 -142 68 -59 127 -50 287 44 125 75 175 88 302 83 93 -4 113 -9 256 -63 141 -53 164 -59 252 -63 79 -3 109 0 165 17 78 24 150 73 192 132 33 44 67 126 58 135 -3 3 -23 -8 -44 -25 -63 -50 -129 -74 -203 -74 -88 1 -146 23 -270 104 -131 84 -217 125 -306 144 -83 18 -206 18 -294 0z" fill="#064E3B" /><path d="M1850 5279 c-110 -22 -212 -97 -259 -191 -43 -85 -40 -94 19 -52 132 95 292 99 424 11 29 -19 109 -88 178 -154 141 -134 229 -188 365 -224 204 -54 442 -8 560 110 111 111 107 259 -7 319 -57 30 -97 26 -245 -23 -104 -35 -115 -37 -215 -33 -119 5 -176 25 -310 112 -102 66 -181 104 -252 121 -69 16 -187 18 -258 4z" fill="#064E3B" /><path d="M7477 6424 c-153 -28 -298 -87 -412 -169 -170 -122 -325 -350 -325 -478 0 -60 29 -123 75 -166 49 -45 90 -56 171 -48 91 9 140 45 315 229 222 231 314 297 477 339 106 27 257 26 348 -2 66 -20 161 -63 231 -105 17 -10 35 -15 39 -11 11 11 -37 104 -81 157 -142 171 -387 271 -660 269 -55 0 -135 -7 -178 -15z" fill="#064E3B" /><path d="M7396 4737 c-22 -16 -24 -63 -5 -82 8 -8 52 -23 98 -35 46 -12 105 -32 130 -45 77 -38 119 -35 140 12 10 23 9 30 -7 52 -55 76 -296 142 -356 98z" fill="#064E3B" /><path d="M7003 4535 c-38 -16 -62 -50 -70 -99 -9 -56 41 -146 137 -249 124 -132 190 -172 459 -277 57 -22 135 -61 173 -86 162 -108 263 -290 289 -522 6 -53 12 -99 14 -100 10 -11 67 113 81 177 23 100 15 287 -16 386 -66 211 -243 435 -452 575 -111 75 -314 175 -393 195 -73 19 -180 19 -222 0z" fill="#064E3B" /><path d="M3030 4363 c-43 -8 -141 -57 -240 -119 -284 -180 -445 -233 -665 -221 -163 9 -256 43 -423 154 -46 30 -85 53 -88 50 -3 -2 4 -27 15 -56 146 -368 730 -591 1196 -456 306 89 533 333 475 510 -35 106 -143 161 -270 138z" fill="#064E3B" /><path d="M6768 3932 c-78 -116 -111 -233 -112 -387 0 -163 25 -227 177 -455 105 -157 139 -225 167 -334 35 -136 23 -321 -28 -468 -11 -32 -17 -60 -13 -63 16 -9 104 59 148 114 160 202 217 525 149 847 -21 98 -50 181 -106 299 -88 187 -305 485 -353 485 -2 0 -16 -17 -29 -38z" fill="#064E3B" /><path d="M3515 3681 c-45 -11 -95 -39 -145 -80 -77 -64 -160 -116 -304 -190 -215 -112 -298 -174 -389 -293 -116 -153 -160 -279 -160 -458 0 -127 17 -196 70 -274 26 -39 28 -40 31 -16 32 255 98 388 250 501 78 57 166 94 351 144 302 81 442 169 518 324 51 102 34 230 -39 298 -48 45 -113 61 -183 44z" fill="#064E3B" /><path d="M6264 3481 c-35 -21 -84 -110 -109 -196 -28 -97 -25 -241 9 -338 14 -43 41 -102 60 -130 119 -185 344 -277 402 -165 27 52 19 67 -119 235 -57 69 -119 185 -143 268 -10 36 -20 112 -23 189 -5 115 -8 130 -26 142 -18 12 -25 11 -51 -5z" fill="#064E3B" /><path d="M4185 3201 c-51 -23 -82 -59 -130 -153 -46 -90 -85 -143 -209 -281 -204 -229 -268 -346 -296 -541 -28 -197 24 -388 138 -506 27 -28 53 -50 58 -50 7 0 6 26 -2 73 -25 140 -14 231 42 345 46 94 124 177 278 296 256 199 372 366 392 565 20 186 -123 319 -271 252z" fill="#064E3B" /><path d="M5718 3157 c-43 -43 -101 -154 -124 -237 -14 -50 -18 -102 -18 -225 -1 -149 1 -165 27 -239 33 -93 87 -188 154 -271 183 -225 483 -314 731 -215 45 18 82 37 82 41 0 5 -19 9 -42 9 -245 1 -491 181 -618 452 -81 173 -115 358 -100 539 5 52 12 107 15 121 4 17 1 31 -10 42 -26 25 -61 19 -97 -17z" fill="#064E3B" /><path d="M5012 3067 c-54 -20 -101 -66 -158 -153 -103 -157 -165 -322 -184 -494 -24 -199 7 -376 95 -555 82 -164 193 -284 319 -344 48 -22 136 -39 136 -26 0 4 -15 28 -34 54 -114 156 -170 375 -147 576 16 138 38 214 134 455 79 200 81 207 82 291 0 77 -3 89 -28 128 -46 70 -133 97 -215 68z" fill="#064E3B" /><path d="M4785 6504 c-252 -46 -477 -138 -661 -270 -316 -226 -555 -595 -638 -985 -54 -254 -40 -567 38 -809 163 -510 570 -909 1074 -1054 154 -45 240 -56 427 -56 768 0 1391 507 1556 1267 27 125 37 409 19 549 -31 253 -164 564 -328 771 -190 239 -453 426 -732 523 -164 56 -264 72 -475 76 -147 2 -221 -1 -280 -12z" fill="#10B981" /></g></svg>